<?xml version="1.0" encoding="iso-8859-1"?>
<!-- Uploaded to: SVG Repo, www.svgrepo.com, Generator: SVG Repo Mixer Tools -->
<svg height="800px" width="800px" version="1.1" id="Layer_1" xmlns="http://www.w3.org/2000/svg" xmlns:xlink="http://www.w3.org/1999/xlink" 
	 viewBox="0 0 512.853 512.853" xml:space="preserve">
<g transform="translate(1 1)">
	<path style="fill:#FFDD09;" d="M457.24,112.92l-5.973-5.973c-5.12,2.56-11.093,3.413-17.067,3.413
		c-23.893,0-42.667-18.773-42.667-42.667c0-5.12,0.853-10.24,2.56-14.507l-6.827-6.827C348.867,22.467,303.64,7.96,255,7.96
		C118.467,7.96,7.533,118.893,7.533,255.427S118.467,502.893,255,502.893c45.227,0,87.893-11.947,124.587-33.28
		c-3.413-5.12-5.12-11.093-5.12-17.92c0-18.773,15.36-34.133,34.133-34.133c9.387,0,17.92,3.413,23.893,10.24
		c43.52-44.373,69.973-105.813,69.973-172.373C502.467,202.52,485.4,153.88,457.24,112.92"/>
	<g>
		<path style="fill:#1CD759;" d="M476.867,67.693c0,23.893-18.773,42.667-42.667,42.667c-23.893,0-42.667-18.773-42.667-42.667
			s18.773-42.667,42.667-42.667C458.093,25.027,476.867,43.8,476.867,67.693"/>
		<path style="fill:#1CD759;" d="M442.733,451.693c0,18.773-15.36,34.133-34.133,34.133c-18.773,0-34.133-15.36-34.133-34.133
			s15.36-34.133,34.133-34.133C427.373,417.56,442.733,432.92,442.733,451.693"/>
		<path style="fill:#1CD759;" d="M118.467,204.227c0,18.773-15.36,34.133-34.133,34.133S50.2,223,50.2,204.227
			s15.36-34.133,34.133-34.133S118.467,185.453,118.467,204.227"/>
	</g>
	<path style="fill:#FD9808;" d="M255,76.227c-69.12,0-128.853,39.253-158.72,96.427c12.8,5.12,22.187,17.067,22.187,31.573
		c0,18.773-15.36,34.133-34.133,34.133c-2.56,0-5.12,0-7.68-0.853c-0.853,5.973-0.853,11.947-0.853,17.92
		c0,98.987,80.213,179.2,179.2,179.2s179.2-80.213,179.2-179.2S353.987,76.227,255,76.227"/>
	<path style="fill:#1CD759;" d="M306.2,255.427c0,28.16-23.04,51.2-51.2,51.2s-51.2-23.04-51.2-51.2s23.04-51.2,51.2-51.2
		S306.2,227.267,306.2,255.427"/>
	<path d="M255,315.16c-33.28,0-59.733-26.453-59.733-59.733S221.72,195.693,255,195.693s59.733,26.453,59.733,59.733
		S288.28,315.16,255,315.16z M255,212.76c-23.893,0-42.667,18.773-42.667,42.667s18.773,42.667,42.667,42.667
		s42.667-18.773,42.667-42.667S278.893,212.76,255,212.76z"/>
	<path d="M255,212.76c-5.12,0-8.533-3.413-8.533-8.533V161.56c0-5.12,3.413-8.533,8.533-8.533s8.533,3.413,8.533,8.533v42.667
		C263.533,209.347,260.12,212.76,255,212.76z"/>
	<path d="M255,357.827c-5.12,0-8.533-3.413-8.533-8.533v-42.667c0-5.12,3.413-8.533,8.533-8.533s8.533,3.413,8.533,8.533v42.667
		C263.533,354.413,260.12,357.827,255,357.827z"/>
	<path d="M348.867,263.96H306.2c-5.12,0-8.533-3.413-8.533-8.533c0-5.12,3.413-8.533,8.533-8.533h42.667
		c5.12,0,8.533,3.413,8.533,8.533C357.4,260.547,353.987,263.96,348.867,263.96z"/>
	<path d="M203.8,263.96h-42.667c-5.12,0-8.533-3.413-8.533-8.533c0-5.12,3.413-8.533,8.533-8.533H203.8
		c5.12,0,8.533,3.413,8.533,8.533C212.333,260.547,208.92,263.96,203.8,263.96z"/>
	<path d="M219.16,228.12c-2.56,0-4.267-0.853-5.973-2.56l-32.427-32.427c-3.413-3.413-3.413-8.533,0-11.947s8.533-3.413,11.947,0
		l32.427,32.427c3.413,3.413,3.413,8.533,0,11.947C223.427,227.267,220.867,228.12,219.16,228.12z"/>
	<path d="M323.267,332.227c-2.56,0-4.267-0.853-5.973-2.56l-32.427-32.427c-3.413-3.413-3.413-8.533,0-11.947
		c3.413-3.413,8.533-3.413,11.947,0l32.427,32.427c3.413,3.413,3.413,8.533,0,11.947
		C327.533,331.373,325.827,332.227,323.267,332.227z"/>
	<path d="M290.84,228.12c-2.56,0-4.267-0.853-5.973-2.56c-3.413-3.413-3.413-8.533,0-11.947l32.427-32.427
		c3.413-3.413,8.533-3.413,11.947,0c3.413,3.413,3.413,8.533,0,11.947l-31.573,32.427C295.96,227.267,293.4,228.12,290.84,228.12z"
		/>
	<path d="M186.733,332.227c-2.56,0-4.267-0.853-5.973-2.56c-3.413-3.413-3.413-8.533,0-11.947l32.427-32.427
		c3.413-3.413,8.533-3.413,11.947,0c3.413,3.413,3.413,8.533,0,11.947l-32.427,32.427C191,331.373,189.293,332.227,186.733,332.227z
		"/>
	<path d="M434.2,118.893c-28.16,0-51.2-23.04-51.2-51.2s23.04-51.2,51.2-51.2c28.16,0,51.2,23.04,51.2,51.2
		S462.36,118.893,434.2,118.893z M434.2,33.56c-18.773,0-34.133,15.36-34.133,34.133s15.36,34.133,34.133,34.133
		c18.773,0,34.133-15.36,34.133-34.133S452.973,33.56,434.2,33.56z"/>
	<path d="M408.6,494.36c-23.893,0-42.667-18.773-42.667-42.667c0-23.893,18.773-42.667,42.667-42.667
		c23.893,0,42.667,18.773,42.667,42.667C451.267,475.587,432.493,494.36,408.6,494.36z M408.6,426.093
		c-14.507,0-25.6,11.093-25.6,25.6c0,14.507,11.093,25.6,25.6,25.6c14.507,0,25.6-11.093,25.6-25.6
		C434.2,437.187,423.107,426.093,408.6,426.093z"/>
	<path d="M84.333,246.893c-23.893,0-42.667-18.773-42.667-42.667S60.44,161.56,84.333,161.56S127,180.333,127,204.227
		S108.227,246.893,84.333,246.893z M84.333,178.627c-14.507,0-25.6,11.093-25.6,25.6s11.093,25.6,25.6,25.6s25.6-11.093,25.6-25.6
		S98.84,178.627,84.333,178.627z"/>
	<path d="M255,443.16c-103.253,0-187.733-84.48-187.733-187.733c0-5.973,0-12.8,0.853-18.773l0.853-9.387l9.387,2.56
		c2.56,0,4.267,0,5.973,0c14.507,0,25.6-11.093,25.6-25.6c0-10.24-6.827-20.48-16.213-23.893l-9.387-3.413l4.267-8.533
		C121.027,106.093,185.027,67.693,255,67.693c103.253,0,187.733,84.48,187.733,187.733S358.253,443.16,255,443.16z M84.333,246.893
		c0,2.56,0,5.973,0,8.533c0,93.867,76.8,170.667,170.667,170.667s170.667-76.8,170.667-170.667S348.867,84.76,255,84.76
		c-60.587,0-116.053,32.427-146.773,84.48C120.173,176.92,127,190.573,127,204.227C127,227.267,108.227,246.893,84.333,246.893z"/>
	<path d="M255,511.427c-140.8,0-256-115.2-256-256s115.2-256,256-256c48.64,0,96.427,13.653,137.387,40.107l1.707,0.853l10.24,10.24
		l-1.707,5.12c-1.707,4.267-2.56,7.68-2.56,11.947c0,18.773,15.36,34.133,34.133,34.133c4.267,0,9.387-0.853,13.653-2.56l5.12-2.56
		L464.92,107.8c30.72,43.52,46.933,93.867,46.933,146.773c0,66.56-25.6,129.707-72.533,178.347l-5.973,5.973l-5.973-5.973
		c-5.12-4.267-11.947-6.827-18.773-6.827c-14.507,0-25.6,11.093-25.6,25.6c0,4.267,0.853,9.387,3.413,12.8l4.267,7.68L383,476.44
		C344.6,499.48,300.227,511.427,255,511.427z M255,16.493c-131.413,0-238.933,107.52-238.933,238.933S123.587,494.36,255,494.36
		c39.253,0,78.507-10.24,113.493-29.013c-1.707-4.267-2.56-8.533-2.56-13.653c0-23.893,18.773-42.667,42.667-42.667
		c8.533,0,16.213,2.56,23.04,6.827c40.107-44.373,62.293-100.693,62.293-160.427c0-49.493-14.507-96.427-42.667-136.533l-2.56-1.707
		c-4.267,0.853-9.387,1.707-14.507,1.707c-28.16,0-51.2-23.04-51.2-51.2c0-4.267,0.853-8.533,1.707-11.947l-2.56-2.56
		C344.6,29.293,300.227,16.493,255,16.493z"/>
</g>
</svg>